<svg xmlns="http://www.w3.org/2000/svg" viewBox="0 0 64 64">
  <defs>
    <linearGradient id="g" x1="0" y1="0" x2="1" y2="1">
      <stop offset="0%" stop-color="#f8e08a" />
      <stop offset="55%" stop-color="#d4af37" />
      <stop offset="100%" stop-color="#8a6a18" />
    </linearGradient>
  </defs>
  <rect width="64" height="64" rx="14" fill="#0f0c07" />
  <circle cx="32" cy="32" r="21" fill="none" stroke="url(#g)" stroke-width="4" />
  <path
    d="M39.8 24.4c-2-1.5-4.9-2.4-8-2.4-7.1 0-12 4.6-12 10.8 0 6.3 5 10.8 12.3 10.8 2.7 0 5.3-.7 7.5-2l-2-3.7c-1.5.8-3.3 1.3-5.2 1.3-4.7 0-7.9-2.7-7.9-6.4 0-3.6 3-6.4 7.4-6.4 2.1 0 4 .6 5.6 1.6z"
    fill="url(#g)"
  />
</svg>
